M48
INCH
T1C0.0157
T2C0.0236
T3C0.0335
T4C0.0362
T5C0.0394
T6C0.0433
T7C0.0906
%
G90
G05
T1
X4.872Y-0.9055
X4.872Y-0.9744
X4.8819Y-3.1398
X4.8819Y-3.2087
X4.9114Y-2.8937
X4.9114Y-2.9429
X4.9409Y-0.9055
X4.9409Y-3.002
X4.9409Y-3.0512
X4.9508Y-1.9587
X4.9508Y-3.2087
X4.9606Y-2.0079
X4.9705Y-2.0571
X4.9803Y-2.5787
X4.9843Y-2.2087
X4.9843Y-2.2598
X4.9843Y-2.3071
X4.9902Y-1.9193
X4.9902Y-2.3622
X4.9902Y-3.002
X4.9902Y-3.0512
X4.9902Y-3.1004
X5.0Y-1.9685
X5.0098Y-2.0177
X5.0197Y-2.185
X5.0197Y-2.2343
X5.0197Y-2.2835
X5.0197Y-2.3425
X5.0197Y-2.3819
X5.0197Y-2.5787
X5.0394Y-1.8799
X5.0394Y-1.9291
X5.0492Y-1.9783
X5.0492Y-3.1299
X5.0787Y-1.8898
X5.0787Y-2.9528
X5.0787Y-3.002
X5.0787Y-3.0512
X5.0787Y-3.1102
X5.0787Y-3.1496
X5.0886Y-1.939
X5.0886Y-2.0571
X5.1181Y-1.8898
X5.1181Y-2.0276
X5.128Y-2.9528
X5.128Y-3.002
X5.1575Y-1.9193
X5.1575Y-1.998
X5.1575Y-2.0571
X5.1772Y-2.9528
X5.1772Y-3.002
X5.187Y-1.8996
X5.187Y-1.939
X5.1969Y-1.4272
X5.1969Y-1.4764
X5.1969Y-1.5256
X5.1969Y-1.5748
X5.1969Y-2.0276
X5.2067Y-1.7717
X5.2067Y-1.8504
X5.2067Y-1.9783
X5.2067Y-2.5295
X5.2067Y-2.5787
X5.2067Y-2.628
X5.2067Y-2.6772
X5.2165Y-2.0669
X5.2362Y-1.811
X5.2461Y-1.4272
X5.2461Y-1.4764
X5.2461Y-1.5256
X5.2461Y-1.5748
X5.2559Y-2.0669
X5.2559Y-2.1063
X5.2559Y-2.4803
X5.2559Y-2.5295
X5.2559Y-2.5787
X5.2559Y-2.628
X5.2657Y-1.7717
X5.2657Y-1.8504
X5.2953Y-1.811
X5.3051Y-3.0807
X5.3248Y-1.4272
X5.3248Y-1.4764
X5.3248Y-1.7717
X5.3248Y-1.8504
X5.3248Y-2.6772
X5.3445Y-2.7165
X5.3543Y-2.6476
X5.3543Y-3.0807
X5.374Y-2.687
X5.3937Y-1.4665
X5.3937Y-2.6181
X5.3937Y-2.7264
X5.3937Y-2.7756
X5.3937Y-2.8248
X5.4035Y-2.2146
X5.4035Y-2.2736
X5.4134Y-1.7323
X5.4134Y-1.7815
X5.4134Y-1.8307
X5.4134Y-1.8799
X5.4134Y-1.9547
X5.4134Y-1.9941
X5.4134Y-2.6476
X5.4232Y-1.4469
X5.4232Y-1.4862
X5.4232Y-1.6831
X5.4331Y-2.2441
X5.4331Y-2.6181
X5.4528Y-3.1299
X5.4528Y-3.2087
X5.4626Y-1.6437
X5.4626Y-2.2146
X5.4626Y-2.2736
X5.4744Y-2.5787
X5.4744Y-2.6181
X5.4744Y-2.7165
X5.4744Y-2.7539
X5.502Y-1.4469
X5.502Y-1.4862
X5.502Y-1.5551
X5.502Y-1.6043
X5.502Y-3.1299
X5.502Y-3.2087
X5.5118Y-2.6969
X5.5118Y-2.7756
X5.5118Y-2.8346
X5.5118Y-2.8937
X5.5315Y-1.4665
X5.5315Y-2.5787
X5.5315Y-2.6181
X5.5413Y-2.6575
X5.561Y-2.6969
X5.561Y-2.8937
X5.5709Y-2.5394
X5.5709Y-2.5787
X5.5709Y-2.6181
X5.5906Y-1.4567
X5.5906Y-1.4961
X5.5906Y-2.6575
X5.6299Y-1.4567
X5.6398Y-1.5551
X5.6398Y-2.9823
X5.6398Y-3.0315
X5.6398Y-3.0807
X5.6398Y-3.1299
X5.6398Y-3.2087
X5.6594Y-1.5256
X5.6693Y-1.4567
X5.6791Y-1.5551
X5.689Y-2.9823
X5.689Y-3.0315
X5.689Y-3.0807
X5.689Y-3.1299
X5.689Y-3.2087
X5.7087Y-1.1516
X5.7087Y-1.3189
X5.7087Y-1.4567
X5.7382Y-1.5256
X5.7382Y-2.0571
X5.7382Y-2.9823
X5.7382Y-3.0315
X5.748Y-1.2008
X5.748Y-1.2697
X5.748Y-1.4567
X5.7677Y-1.5551
X5.7677Y-1.6732
X5.7677Y-1.7126
X5.7677Y-2.0276
X5.7776Y-0.9154
X5.7776Y-0.9744
X5.7776Y-2.0669
X5.7874Y-1.4567
X5.7972Y-1.998
X5.8071Y-2.0374
X5.8071Y-2.2835
X5.8071Y-2.3228
X5.8169Y-2.2441
X5.8169Y-2.4508
X5.8169Y-2.6083
X5.8169Y-2.6575
X5.8169Y-2.7067
X5.8169Y-3.002
X5.8268Y-1.9685
X5.8366Y-2.0079
X5.8366Y-2.3031
X5.8465Y-0.9154
X5.8465Y-0.9744
X5.8661Y-1.9783
X5.8661Y-2.2441
X5.8661Y-2.6083
X5.8661Y-2.6575
X5.8661Y-2.7067
X5.8799Y-1.7421
X5.8858Y-2.9921
X5.8957Y-1.6654
X5.8957Y-1.7028
X5.8957Y-2.2736
X5.9055Y-1.7913
X5.9154Y-0.9154
X5.9154Y-0.9744
X5.9154Y-1.9685
X5.9252Y-2.2441
X5.9252Y-2.3031
X5.9252Y-2.9429
X5.935Y-2.8839
X5.9449Y-2.7461
X5.9449Y-2.815
X5.9547Y-1.7913
X5.9547Y-1.9094
X5.9547Y-1.9488
X5.9547Y-2.2146
X5.9547Y-2.2736
X5.9547Y-2.3327
X5.9547Y-2.4114
X5.9547Y-2.4803
X5.9547Y-2.5492
X5.9547Y-2.6083
X5.9547Y-2.6772
X5.9646Y-1.8307
X5.9705Y-1.6575
X5.9705Y-1.7008
X5.9705Y-1.7421
X5.9744Y-0.9154
X5.9744Y-0.9744
X5.9744Y-1.1319
X5.9744Y-1.1909
X5.9744Y-1.8701
X5.9843Y-2.2441
X5.9843Y-2.3031
X6.0138Y-2.2736
X6.0433Y-1.2598
X6.0827Y-3.2087
X6.1516Y-1.2598
X6.1516Y-3.1398
X6.1516Y-3.2087
T3
X6.0448Y-0.9449
X6.0448Y-1.1417
T4
X5.2362Y-1.3386
X5.3346Y-1.3386
X5.4134Y-1.3386
X5.5118Y-1.3386
T5
X5.1181Y-2.474
X5.1181Y-2.574
X5.1181Y-2.674
X5.1181Y-2.774
X5.1181Y-2.874
T6
X5.8661Y-2.5197
X5.8661Y-2.7756
X6.0433Y-2.5197
X6.0433Y-2.7756
X5.7874Y-2.9134
X5.7874Y-3.0906
X6.0433Y-2.9134
X6.0433Y-3.0906
X5.8661Y-2.126
X5.8661Y-2.3819
X6.0433Y-2.126
X6.0433Y-2.3819
T7
X5.1154Y-1.2319
X5.6327Y-1.2319
T2
G00X6.1373Y-0.9055
M15
G01X6.1649Y-0.9055
M16
G05
G00X6.1649Y-1.1811
M15
G01X6.1373Y-1.1811
M16
G05
T0
M30
