G04 #@! TF.GenerationSoftware,KiCad,Pcbnew,(5.1.5)-3*
G04 #@! TF.CreationDate,2020-05-10T00:15:01-05:00*
G04 #@! TF.ProjectId,PWManager,50574d61-6e61-4676-9572-2e6b69636164,rev?*
G04 #@! TF.SameCoordinates,Original*
G04 #@! TF.FileFunction,Legend,Top*
G04 #@! TF.FilePolarity,Positive*
%FSLAX46Y46*%
G04 Gerber Fmt 4.6, Leading zero omitted, Abs format (unit mm)*
G04 Created by KiCad (PCBNEW (5.1.5)-3) date 2020-05-10 00:15:01*
%MOMM*%
%LPD*%
G04 APERTURE LIST*
%ADD10C,0.150000*%
%ADD11C,0.050000*%
%ADD12C,0.100000*%
%ADD13C,0.010000*%
%ADD14C,0.120000*%
%ADD15C,0.254000*%
%ADD16C,0.250000*%
G04 APERTURE END LIST*
D10*
X148190476Y-86202380D02*
X147857142Y-85726190D01*
X147619047Y-86202380D02*
X147619047Y-85202380D01*
X148000000Y-85202380D01*
X148095238Y-85250000D01*
X148142857Y-85297619D01*
X148190476Y-85392857D01*
X148190476Y-85535714D01*
X148142857Y-85630952D01*
X148095238Y-85678571D01*
X148000000Y-85726190D01*
X147619047Y-85726190D01*
X149000000Y-86154761D02*
X148904761Y-86202380D01*
X148714285Y-86202380D01*
X148619047Y-86154761D01*
X148571428Y-86059523D01*
X148571428Y-85678571D01*
X148619047Y-85583333D01*
X148714285Y-85535714D01*
X148904761Y-85535714D01*
X149000000Y-85583333D01*
X149047619Y-85678571D01*
X149047619Y-85773809D01*
X148571428Y-85869047D01*
X149380952Y-85535714D02*
X149619047Y-86202380D01*
X149857142Y-85535714D01*
X150952380Y-85916666D02*
X151428571Y-85916666D01*
X150857142Y-86202380D02*
X151190476Y-85202380D01*
X151523809Y-86202380D01*
X147678571Y-84452380D02*
X147678571Y-83452380D01*
X148059523Y-83452380D01*
X148154761Y-83500000D01*
X148202380Y-83547619D01*
X148250000Y-83642857D01*
X148250000Y-83785714D01*
X148202380Y-83880952D01*
X148154761Y-83928571D01*
X148059523Y-83976190D01*
X147678571Y-83976190D01*
X148583333Y-83452380D02*
X148821428Y-84452380D01*
X149011904Y-83738095D01*
X149202380Y-84452380D01*
X149440476Y-83452380D01*
X149821428Y-84071428D02*
X150583333Y-84071428D01*
X151059523Y-84452380D02*
X151059523Y-83452380D01*
X151392857Y-84166666D01*
X151726190Y-83452380D01*
X151726190Y-84452380D01*
X152630952Y-84452380D02*
X152630952Y-83928571D01*
X152583333Y-83833333D01*
X152488095Y-83785714D01*
X152297619Y-83785714D01*
X152202380Y-83833333D01*
X152630952Y-84404761D02*
X152535714Y-84452380D01*
X152297619Y-84452380D01*
X152202380Y-84404761D01*
X152154761Y-84309523D01*
X152154761Y-84214285D01*
X152202380Y-84119047D01*
X152297619Y-84071428D01*
X152535714Y-84071428D01*
X152630952Y-84023809D01*
X153107142Y-83785714D02*
X153107142Y-84452380D01*
X153107142Y-83880952D02*
X153154761Y-83833333D01*
X153250000Y-83785714D01*
X153392857Y-83785714D01*
X153488095Y-83833333D01*
X153535714Y-83928571D01*
X153535714Y-84452380D01*
X154440476Y-84452380D02*
X154440476Y-83928571D01*
X154392857Y-83833333D01*
X154297619Y-83785714D01*
X154107142Y-83785714D01*
X154011904Y-83833333D01*
X154440476Y-84404761D02*
X154345238Y-84452380D01*
X154107142Y-84452380D01*
X154011904Y-84404761D01*
X153964285Y-84309523D01*
X153964285Y-84214285D01*
X154011904Y-84119047D01*
X154107142Y-84071428D01*
X154345238Y-84071428D01*
X154440476Y-84023809D01*
X155345238Y-83785714D02*
X155345238Y-84595238D01*
X155297619Y-84690476D01*
X155250000Y-84738095D01*
X155154761Y-84785714D01*
X155011904Y-84785714D01*
X154916666Y-84738095D01*
X155345238Y-84404761D02*
X155250000Y-84452380D01*
X155059523Y-84452380D01*
X154964285Y-84404761D01*
X154916666Y-84357142D01*
X154869047Y-84261904D01*
X154869047Y-83976190D01*
X154916666Y-83880952D01*
X154964285Y-83833333D01*
X155059523Y-83785714D01*
X155250000Y-83785714D01*
X155345238Y-83833333D01*
X156202380Y-84404761D02*
X156107142Y-84452380D01*
X155916666Y-84452380D01*
X155821428Y-84404761D01*
X155773809Y-84309523D01*
X155773809Y-83928571D01*
X155821428Y-83833333D01*
X155916666Y-83785714D01*
X156107142Y-83785714D01*
X156202380Y-83833333D01*
X156250000Y-83928571D01*
X156250000Y-84023809D01*
X155773809Y-84119047D01*
X156678571Y-84452380D02*
X156678571Y-83785714D01*
X156678571Y-83976190D02*
X156726190Y-83880952D01*
X156773809Y-83833333D01*
X156869047Y-83785714D01*
X156964285Y-83785714D01*
D11*
X157750000Y-86750000D02*
X157750000Y-22000000D01*
X157750000Y-86750000D02*
X122500000Y-86750000D01*
X122500000Y-86750000D02*
X122500000Y-22000000D01*
D12*
G36*
X137250000Y-42000000D02*
G01*
X137250000Y-40750000D01*
X138500000Y-40750000D01*
X137250000Y-42000000D01*
G37*
X137250000Y-42000000D02*
X137250000Y-40750000D01*
X138500000Y-40750000D01*
X137250000Y-42000000D01*
D11*
X157750000Y-22000000D02*
X122500000Y-22000000D01*
D13*
G36*
X127555814Y-43218931D02*
G01*
X127639635Y-43663555D01*
X127948920Y-43791053D01*
X128258206Y-43918551D01*
X128629246Y-43666246D01*
X128733157Y-43595996D01*
X128827087Y-43533272D01*
X128906652Y-43480938D01*
X128967470Y-43441857D01*
X129005157Y-43418893D01*
X129015421Y-43413942D01*
X129033910Y-43426676D01*
X129073420Y-43461882D01*
X129129522Y-43515062D01*
X129197787Y-43581718D01*
X129273786Y-43657354D01*
X129353092Y-43737472D01*
X129431275Y-43817574D01*
X129503907Y-43893164D01*
X129566559Y-43959745D01*
X129614803Y-44012818D01*
X129644210Y-44047887D01*
X129651241Y-44059623D01*
X129641123Y-44081260D01*
X129612759Y-44128662D01*
X129569129Y-44197193D01*
X129513218Y-44282215D01*
X129448006Y-44379093D01*
X129410219Y-44434350D01*
X129341343Y-44535248D01*
X129280140Y-44626299D01*
X129229578Y-44702970D01*
X129192628Y-44760728D01*
X129172258Y-44795043D01*
X129169197Y-44802254D01*
X129176136Y-44822748D01*
X129195051Y-44870513D01*
X129223087Y-44938832D01*
X129257391Y-45020989D01*
X129295109Y-45110270D01*
X129333387Y-45199958D01*
X129369370Y-45283338D01*
X129400206Y-45353694D01*
X129423039Y-45404310D01*
X129435017Y-45428471D01*
X129435724Y-45429422D01*
X129454531Y-45434036D01*
X129504618Y-45444328D01*
X129580793Y-45459287D01*
X129677865Y-45477901D01*
X129790643Y-45499159D01*
X129856442Y-45511418D01*
X129976950Y-45534362D01*
X130085797Y-45556195D01*
X130177476Y-45575722D01*
X130246481Y-45591748D01*
X130287304Y-45603079D01*
X130295511Y-45606674D01*
X130303548Y-45631006D01*
X130310033Y-45685959D01*
X130314970Y-45765108D01*
X130318364Y-45862026D01*
X130320218Y-45970287D01*
X130320538Y-46083465D01*
X130319327Y-46195135D01*
X130316590Y-46298868D01*
X130312331Y-46388241D01*
X130306555Y-46456826D01*
X130299267Y-46498197D01*
X130294895Y-46506810D01*
X130268764Y-46517133D01*
X130213393Y-46531892D01*
X130136107Y-46549352D01*
X130044230Y-46567780D01*
X130012158Y-46573741D01*
X129857524Y-46602066D01*
X129735375Y-46624876D01*
X129641673Y-46643080D01*
X129572384Y-46657583D01*
X129523471Y-46669292D01*
X129490897Y-46679115D01*
X129470628Y-46687956D01*
X129458626Y-46696724D01*
X129456947Y-46698457D01*
X129440184Y-46726371D01*
X129414614Y-46780695D01*
X129382788Y-46854777D01*
X129347260Y-46941965D01*
X129310583Y-47035608D01*
X129275311Y-47129052D01*
X129243996Y-47215647D01*
X129219193Y-47288740D01*
X129203454Y-47341678D01*
X129199332Y-47367811D01*
X129199676Y-47368726D01*
X129213641Y-47390086D01*
X129245322Y-47437084D01*
X129291391Y-47504827D01*
X129348518Y-47588423D01*
X129413373Y-47682982D01*
X129431843Y-47709854D01*
X129497699Y-47807275D01*
X129555650Y-47896163D01*
X129602538Y-47971412D01*
X129635207Y-48027920D01*
X129650500Y-48060581D01*
X129651241Y-48064593D01*
X129638392Y-48085684D01*
X129602888Y-48127464D01*
X129549293Y-48185445D01*
X129482171Y-48255135D01*
X129406087Y-48332045D01*
X129325604Y-48411683D01*
X129245287Y-48489561D01*
X129169699Y-48561186D01*
X129103405Y-48622070D01*
X129050969Y-48667721D01*
X129016955Y-48693650D01*
X129007545Y-48697883D01*
X128985643Y-48687912D01*
X128940800Y-48661020D01*
X128880321Y-48621736D01*
X128833789Y-48590117D01*
X128749475Y-48532098D01*
X128649626Y-48463784D01*
X128549473Y-48395579D01*
X128495627Y-48359075D01*
X128313371Y-48235800D01*
X128160381Y-48318520D01*
X128090682Y-48354759D01*
X128031414Y-48382926D01*
X127991311Y-48398991D01*
X127981103Y-48401226D01*
X127968829Y-48384722D01*
X127944613Y-48338082D01*
X127910263Y-48265609D01*
X127867588Y-48171606D01*
X127818394Y-48060374D01*
X127764490Y-47936215D01*
X127707684Y-47803432D01*
X127649782Y-47666327D01*
X127592593Y-47529202D01*
X127537924Y-47396358D01*
X127487584Y-47272098D01*
X127443380Y-47160725D01*
X127407119Y-47066539D01*
X127380609Y-46993844D01*
X127365658Y-46946941D01*
X127363254Y-46930833D01*
X127382311Y-46910286D01*
X127424036Y-46876933D01*
X127479706Y-46837702D01*
X127484378Y-46834599D01*
X127628264Y-46719423D01*
X127744283Y-46585053D01*
X127831430Y-46435784D01*
X127888699Y-46275913D01*
X127915086Y-46109737D01*
X127909585Y-45941552D01*
X127871190Y-45775655D01*
X127798895Y-45616342D01*
X127777626Y-45581487D01*
X127666996Y-45440737D01*
X127536302Y-45327714D01*
X127390064Y-45243003D01*
X127232808Y-45187194D01*
X127069057Y-45160874D01*
X126903333Y-45164630D01*
X126740162Y-45199050D01*
X126584065Y-45264723D01*
X126439567Y-45362235D01*
X126394869Y-45401813D01*
X126281112Y-45525703D01*
X126198218Y-45656124D01*
X126141356Y-45802315D01*
X126109687Y-45947088D01*
X126101869Y-46109860D01*
X126127938Y-46273440D01*
X126185245Y-46432298D01*
X126271144Y-46580906D01*
X126382986Y-46713735D01*
X126518123Y-46825256D01*
X126535883Y-46837011D01*
X126592150Y-46875508D01*
X126634923Y-46908863D01*
X126655372Y-46930160D01*
X126655669Y-46930833D01*
X126651279Y-46953871D01*
X126633876Y-47006157D01*
X126605268Y-47083390D01*
X126567265Y-47181268D01*
X126521674Y-47295491D01*
X126470303Y-47421758D01*
X126414962Y-47555767D01*
X126357458Y-47693218D01*
X126299601Y-47829808D01*
X126243198Y-47961237D01*
X126190058Y-48083205D01*
X126141990Y-48191409D01*
X126100801Y-48281549D01*
X126068301Y-48349323D01*
X126046297Y-48390430D01*
X126037436Y-48401226D01*
X126010360Y-48392819D01*
X125959697Y-48370272D01*
X125894183Y-48337613D01*
X125858159Y-48318520D01*
X125705168Y-48235800D01*
X125522912Y-48359075D01*
X125429875Y-48422228D01*
X125328015Y-48491727D01*
X125232562Y-48557165D01*
X125184750Y-48590117D01*
X125117505Y-48635273D01*
X125060564Y-48671057D01*
X125021354Y-48692938D01*
X125008619Y-48697563D01*
X124990083Y-48685085D01*
X124949059Y-48650252D01*
X124889525Y-48596678D01*
X124815458Y-48527983D01*
X124730835Y-48447781D01*
X124677315Y-48396286D01*
X124583681Y-48304286D01*
X124502759Y-48221999D01*
X124437823Y-48152945D01*
X124392142Y-48100644D01*
X124368989Y-48068616D01*
X124366768Y-48062116D01*
X124377076Y-48037394D01*
X124405561Y-47987405D01*
X124449063Y-47917212D01*
X124504423Y-47831875D01*
X124568480Y-47736456D01*
X124586697Y-47709854D01*
X124653073Y-47613167D01*
X124712622Y-47526117D01*
X124762016Y-47453595D01*
X124797925Y-47400493D01*
X124817019Y-47371703D01*
X124818864Y-47368726D01*
X124816105Y-47345782D01*
X124801462Y-47295336D01*
X124777487Y-47224041D01*
X124746734Y-47138547D01*
X124711756Y-47045507D01*
X124675107Y-46951574D01*
X124639339Y-46863399D01*
X124607006Y-46787634D01*
X124580662Y-46730931D01*
X124562858Y-46699943D01*
X124561593Y-46698457D01*
X124550706Y-46689601D01*
X124532318Y-46680843D01*
X124502394Y-46671277D01*
X124456897Y-46659996D01*
X124391791Y-46646093D01*
X124303039Y-46628663D01*
X124186607Y-46606798D01*
X124038458Y-46579591D01*
X124006382Y-46573741D01*
X123911314Y-46555374D01*
X123828435Y-46537405D01*
X123765070Y-46521569D01*
X123728542Y-46509600D01*
X123723644Y-46506810D01*
X123715573Y-46482072D01*
X123709013Y-46426790D01*
X123703967Y-46347389D01*
X123700441Y-46250296D01*
X123698439Y-46141938D01*
X123697964Y-46028740D01*
X123699023Y-45917128D01*
X123701618Y-45813529D01*
X123705754Y-45724368D01*
X123711437Y-45656072D01*
X123718669Y-45615066D01*
X123723029Y-45606674D01*
X123747302Y-45598208D01*
X123802574Y-45584435D01*
X123883338Y-45566550D01*
X123984088Y-45545748D01*
X124099317Y-45523223D01*
X124162098Y-45511418D01*
X124281213Y-45489151D01*
X124387435Y-45468979D01*
X124475573Y-45451915D01*
X124540434Y-45438969D01*
X124576826Y-45431155D01*
X124582816Y-45429422D01*
X124592939Y-45409890D01*
X124614338Y-45362843D01*
X124644161Y-45295003D01*
X124679555Y-45213091D01*
X124717668Y-45123828D01*
X124755647Y-45033935D01*
X124790640Y-44950135D01*
X124819794Y-44879147D01*
X124840257Y-44827694D01*
X124849177Y-44802497D01*
X124849343Y-44801396D01*
X124839231Y-44781519D01*
X124810883Y-44735777D01*
X124767277Y-44668717D01*
X124711394Y-44584884D01*
X124646213Y-44488826D01*
X124608321Y-44433650D01*
X124539275Y-44332481D01*
X124477950Y-44240630D01*
X124427337Y-44162744D01*
X124390429Y-44103469D01*
X124370218Y-44067451D01*
X124367299Y-44059377D01*
X124379847Y-44040584D01*
X124414537Y-44000457D01*
X124466937Y-43943493D01*
X124532616Y-43874185D01*
X124607144Y-43797031D01*
X124686087Y-43716525D01*
X124765017Y-43637163D01*
X124839500Y-43563440D01*
X124905106Y-43499852D01*
X124957404Y-43450894D01*
X124991961Y-43421061D01*
X125003522Y-43413942D01*
X125022346Y-43423953D01*
X125067369Y-43452078D01*
X125134213Y-43495454D01*
X125218501Y-43551218D01*
X125315856Y-43616506D01*
X125389293Y-43666246D01*
X125760333Y-43918551D01*
X126378905Y-43663555D01*
X126462725Y-43218931D01*
X126546546Y-42774307D01*
X127471994Y-42774307D01*
X127555814Y-43218931D01*
G37*
X127555814Y-43218931D02*
X127639635Y-43663555D01*
X127948920Y-43791053D01*
X128258206Y-43918551D01*
X128629246Y-43666246D01*
X128733157Y-43595996D01*
X128827087Y-43533272D01*
X128906652Y-43480938D01*
X128967470Y-43441857D01*
X129005157Y-43418893D01*
X129015421Y-43413942D01*
X129033910Y-43426676D01*
X129073420Y-43461882D01*
X129129522Y-43515062D01*
X129197787Y-43581718D01*
X129273786Y-43657354D01*
X129353092Y-43737472D01*
X129431275Y-43817574D01*
X129503907Y-43893164D01*
X129566559Y-43959745D01*
X129614803Y-44012818D01*
X129644210Y-44047887D01*
X129651241Y-44059623D01*
X129641123Y-44081260D01*
X129612759Y-44128662D01*
X129569129Y-44197193D01*
X129513218Y-44282215D01*
X129448006Y-44379093D01*
X129410219Y-44434350D01*
X129341343Y-44535248D01*
X129280140Y-44626299D01*
X129229578Y-44702970D01*
X129192628Y-44760728D01*
X129172258Y-44795043D01*
X129169197Y-44802254D01*
X129176136Y-44822748D01*
X129195051Y-44870513D01*
X129223087Y-44938832D01*
X129257391Y-45020989D01*
X129295109Y-45110270D01*
X129333387Y-45199958D01*
X129369370Y-45283338D01*
X129400206Y-45353694D01*
X129423039Y-45404310D01*
X129435017Y-45428471D01*
X129435724Y-45429422D01*
X129454531Y-45434036D01*
X129504618Y-45444328D01*
X129580793Y-45459287D01*
X129677865Y-45477901D01*
X129790643Y-45499159D01*
X129856442Y-45511418D01*
X129976950Y-45534362D01*
X130085797Y-45556195D01*
X130177476Y-45575722D01*
X130246481Y-45591748D01*
X130287304Y-45603079D01*
X130295511Y-45606674D01*
X130303548Y-45631006D01*
X130310033Y-45685959D01*
X130314970Y-45765108D01*
X130318364Y-45862026D01*
X130320218Y-45970287D01*
X130320538Y-46083465D01*
X130319327Y-46195135D01*
X130316590Y-46298868D01*
X130312331Y-46388241D01*
X130306555Y-46456826D01*
X130299267Y-46498197D01*
X130294895Y-46506810D01*
X130268764Y-46517133D01*
X130213393Y-46531892D01*
X130136107Y-46549352D01*
X130044230Y-46567780D01*
X130012158Y-46573741D01*
X129857524Y-46602066D01*
X129735375Y-46624876D01*
X129641673Y-46643080D01*
X129572384Y-46657583D01*
X129523471Y-46669292D01*
X129490897Y-46679115D01*
X129470628Y-46687956D01*
X129458626Y-46696724D01*
X129456947Y-46698457D01*
X129440184Y-46726371D01*
X129414614Y-46780695D01*
X129382788Y-46854777D01*
X129347260Y-46941965D01*
X129310583Y-47035608D01*
X129275311Y-47129052D01*
X129243996Y-47215647D01*
X129219193Y-47288740D01*
X129203454Y-47341678D01*
X129199332Y-47367811D01*
X129199676Y-47368726D01*
X129213641Y-47390086D01*
X129245322Y-47437084D01*
X129291391Y-47504827D01*
X129348518Y-47588423D01*
X129413373Y-47682982D01*
X129431843Y-47709854D01*
X129497699Y-47807275D01*
X129555650Y-47896163D01*
X129602538Y-47971412D01*
X129635207Y-48027920D01*
X129650500Y-48060581D01*
X129651241Y-48064593D01*
X129638392Y-48085684D01*
X129602888Y-48127464D01*
X129549293Y-48185445D01*
X129482171Y-48255135D01*
X129406087Y-48332045D01*
X129325604Y-48411683D01*
X129245287Y-48489561D01*
X129169699Y-48561186D01*
X129103405Y-48622070D01*
X129050969Y-48667721D01*
X129016955Y-48693650D01*
X129007545Y-48697883D01*
X128985643Y-48687912D01*
X128940800Y-48661020D01*
X128880321Y-48621736D01*
X128833789Y-48590117D01*
X128749475Y-48532098D01*
X128649626Y-48463784D01*
X128549473Y-48395579D01*
X128495627Y-48359075D01*
X128313371Y-48235800D01*
X128160381Y-48318520D01*
X128090682Y-48354759D01*
X128031414Y-48382926D01*
X127991311Y-48398991D01*
X127981103Y-48401226D01*
X127968829Y-48384722D01*
X127944613Y-48338082D01*
X127910263Y-48265609D01*
X127867588Y-48171606D01*
X127818394Y-48060374D01*
X127764490Y-47936215D01*
X127707684Y-47803432D01*
X127649782Y-47666327D01*
X127592593Y-47529202D01*
X127537924Y-47396358D01*
X127487584Y-47272098D01*
X127443380Y-47160725D01*
X127407119Y-47066539D01*
X127380609Y-46993844D01*
X127365658Y-46946941D01*
X127363254Y-46930833D01*
X127382311Y-46910286D01*
X127424036Y-46876933D01*
X127479706Y-46837702D01*
X127484378Y-46834599D01*
X127628264Y-46719423D01*
X127744283Y-46585053D01*
X127831430Y-46435784D01*
X127888699Y-46275913D01*
X127915086Y-46109737D01*
X127909585Y-45941552D01*
X127871190Y-45775655D01*
X127798895Y-45616342D01*
X127777626Y-45581487D01*
X127666996Y-45440737D01*
X127536302Y-45327714D01*
X127390064Y-45243003D01*
X127232808Y-45187194D01*
X127069057Y-45160874D01*
X126903333Y-45164630D01*
X126740162Y-45199050D01*
X126584065Y-45264723D01*
X126439567Y-45362235D01*
X126394869Y-45401813D01*
X126281112Y-45525703D01*
X126198218Y-45656124D01*
X126141356Y-45802315D01*
X126109687Y-45947088D01*
X126101869Y-46109860D01*
X126127938Y-46273440D01*
X126185245Y-46432298D01*
X126271144Y-46580906D01*
X126382986Y-46713735D01*
X126518123Y-46825256D01*
X126535883Y-46837011D01*
X126592150Y-46875508D01*
X126634923Y-46908863D01*
X126655372Y-46930160D01*
X126655669Y-46930833D01*
X126651279Y-46953871D01*
X126633876Y-47006157D01*
X126605268Y-47083390D01*
X126567265Y-47181268D01*
X126521674Y-47295491D01*
X126470303Y-47421758D01*
X126414962Y-47555767D01*
X126357458Y-47693218D01*
X126299601Y-47829808D01*
X126243198Y-47961237D01*
X126190058Y-48083205D01*
X126141990Y-48191409D01*
X126100801Y-48281549D01*
X126068301Y-48349323D01*
X126046297Y-48390430D01*
X126037436Y-48401226D01*
X126010360Y-48392819D01*
X125959697Y-48370272D01*
X125894183Y-48337613D01*
X125858159Y-48318520D01*
X125705168Y-48235800D01*
X125522912Y-48359075D01*
X125429875Y-48422228D01*
X125328015Y-48491727D01*
X125232562Y-48557165D01*
X125184750Y-48590117D01*
X125117505Y-48635273D01*
X125060564Y-48671057D01*
X125021354Y-48692938D01*
X125008619Y-48697563D01*
X124990083Y-48685085D01*
X124949059Y-48650252D01*
X124889525Y-48596678D01*
X124815458Y-48527983D01*
X124730835Y-48447781D01*
X124677315Y-48396286D01*
X124583681Y-48304286D01*
X124502759Y-48221999D01*
X124437823Y-48152945D01*
X124392142Y-48100644D01*
X124368989Y-48068616D01*
X124366768Y-48062116D01*
X124377076Y-48037394D01*
X124405561Y-47987405D01*
X124449063Y-47917212D01*
X124504423Y-47831875D01*
X124568480Y-47736456D01*
X124586697Y-47709854D01*
X124653073Y-47613167D01*
X124712622Y-47526117D01*
X124762016Y-47453595D01*
X124797925Y-47400493D01*
X124817019Y-47371703D01*
X124818864Y-47368726D01*
X124816105Y-47345782D01*
X124801462Y-47295336D01*
X124777487Y-47224041D01*
X124746734Y-47138547D01*
X124711756Y-47045507D01*
X124675107Y-46951574D01*
X124639339Y-46863399D01*
X124607006Y-46787634D01*
X124580662Y-46730931D01*
X124562858Y-46699943D01*
X124561593Y-46698457D01*
X124550706Y-46689601D01*
X124532318Y-46680843D01*
X124502394Y-46671277D01*
X124456897Y-46659996D01*
X124391791Y-46646093D01*
X124303039Y-46628663D01*
X124186607Y-46606798D01*
X124038458Y-46579591D01*
X124006382Y-46573741D01*
X123911314Y-46555374D01*
X123828435Y-46537405D01*
X123765070Y-46521569D01*
X123728542Y-46509600D01*
X123723644Y-46506810D01*
X123715573Y-46482072D01*
X123709013Y-46426790D01*
X123703967Y-46347389D01*
X123700441Y-46250296D01*
X123698439Y-46141938D01*
X123697964Y-46028740D01*
X123699023Y-45917128D01*
X123701618Y-45813529D01*
X123705754Y-45724368D01*
X123711437Y-45656072D01*
X123718669Y-45615066D01*
X123723029Y-45606674D01*
X123747302Y-45598208D01*
X123802574Y-45584435D01*
X123883338Y-45566550D01*
X123984088Y-45545748D01*
X124099317Y-45523223D01*
X124162098Y-45511418D01*
X124281213Y-45489151D01*
X124387435Y-45468979D01*
X124475573Y-45451915D01*
X124540434Y-45438969D01*
X124576826Y-45431155D01*
X124582816Y-45429422D01*
X124592939Y-45409890D01*
X124614338Y-45362843D01*
X124644161Y-45295003D01*
X124679555Y-45213091D01*
X124717668Y-45123828D01*
X124755647Y-45033935D01*
X124790640Y-44950135D01*
X124819794Y-44879147D01*
X124840257Y-44827694D01*
X124849177Y-44802497D01*
X124849343Y-44801396D01*
X124839231Y-44781519D01*
X124810883Y-44735777D01*
X124767277Y-44668717D01*
X124711394Y-44584884D01*
X124646213Y-44488826D01*
X124608321Y-44433650D01*
X124539275Y-44332481D01*
X124477950Y-44240630D01*
X124427337Y-44162744D01*
X124390429Y-44103469D01*
X124370218Y-44067451D01*
X124367299Y-44059377D01*
X124379847Y-44040584D01*
X124414537Y-44000457D01*
X124466937Y-43943493D01*
X124532616Y-43874185D01*
X124607144Y-43797031D01*
X124686087Y-43716525D01*
X124765017Y-43637163D01*
X124839500Y-43563440D01*
X124905106Y-43499852D01*
X124957404Y-43450894D01*
X124991961Y-43421061D01*
X125003522Y-43413942D01*
X125022346Y-43423953D01*
X125067369Y-43452078D01*
X125134213Y-43495454D01*
X125218501Y-43551218D01*
X125315856Y-43616506D01*
X125389293Y-43666246D01*
X125760333Y-43918551D01*
X126378905Y-43663555D01*
X126462725Y-43218931D01*
X126546546Y-42774307D01*
X127471994Y-42774307D01*
X127555814Y-43218931D01*
G36*
X126530307Y-37322582D02*
G01*
X126519527Y-37345280D01*
X126486039Y-37407175D01*
X126432602Y-37503449D01*
X126361974Y-37629284D01*
X126276917Y-37779864D01*
X126180187Y-37950371D01*
X126074545Y-38135988D01*
X125962749Y-38331897D01*
X125847560Y-38533281D01*
X125731735Y-38735323D01*
X125618034Y-38933205D01*
X125509216Y-39122110D01*
X125408041Y-39297221D01*
X125317267Y-39453720D01*
X125239653Y-39586790D01*
X125177959Y-39691613D01*
X125134944Y-39763372D01*
X125113367Y-39797250D01*
X125111965Y-39798962D01*
X125088712Y-39796409D01*
X125085374Y-39791982D01*
X125066851Y-39738829D01*
X125049216Y-39647736D01*
X125034060Y-39531612D01*
X125022973Y-39403362D01*
X125017544Y-39275893D01*
X125017258Y-39238974D01*
X125042392Y-38924684D01*
X125114807Y-38624304D01*
X125231865Y-38342074D01*
X125390925Y-38082229D01*
X125589346Y-37849007D01*
X125824488Y-37646646D01*
X126093712Y-37479383D01*
X126122823Y-37464543D01*
X126208241Y-37425284D01*
X126303121Y-37386945D01*
X126395031Y-37353856D01*
X126471542Y-37330348D01*
X126520224Y-37320751D01*
X126530307Y-37322582D01*
G37*
X126530307Y-37322582D02*
X126519527Y-37345280D01*
X126486039Y-37407175D01*
X126432602Y-37503449D01*
X126361974Y-37629284D01*
X126276917Y-37779864D01*
X126180187Y-37950371D01*
X126074545Y-38135988D01*
X125962749Y-38331897D01*
X125847560Y-38533281D01*
X125731735Y-38735323D01*
X125618034Y-38933205D01*
X125509216Y-39122110D01*
X125408041Y-39297221D01*
X125317267Y-39453720D01*
X125239653Y-39586790D01*
X125177959Y-39691613D01*
X125134944Y-39763372D01*
X125113367Y-39797250D01*
X125111965Y-39798962D01*
X125088712Y-39796409D01*
X125085374Y-39791982D01*
X125066851Y-39738829D01*
X125049216Y-39647736D01*
X125034060Y-39531612D01*
X125022973Y-39403362D01*
X125017544Y-39275893D01*
X125017258Y-39238974D01*
X125042392Y-38924684D01*
X125114807Y-38624304D01*
X125231865Y-38342074D01*
X125390925Y-38082229D01*
X125589346Y-37849007D01*
X125824488Y-37646646D01*
X126093712Y-37479383D01*
X126122823Y-37464543D01*
X126208241Y-37425284D01*
X126303121Y-37386945D01*
X126395031Y-37353856D01*
X126471542Y-37330348D01*
X126520224Y-37320751D01*
X126530307Y-37322582D01*
G36*
X127566363Y-37341926D02*
G01*
X127656660Y-37374007D01*
X127759840Y-37415993D01*
X127864987Y-37463708D01*
X127960344Y-37512511D01*
X128216787Y-37681967D01*
X128441161Y-37887307D01*
X128630501Y-38123121D01*
X128781847Y-38383994D01*
X128892236Y-38664516D01*
X128958705Y-38959274D01*
X128978292Y-39262856D01*
X128973938Y-39364414D01*
X128962789Y-39484814D01*
X128947386Y-39601784D01*
X128930584Y-39694528D01*
X128926050Y-39713201D01*
X128894194Y-39833159D01*
X128174253Y-38585560D01*
X128041808Y-38355398D01*
X127917721Y-38138509D01*
X127804213Y-37938858D01*
X127703503Y-37760410D01*
X127617811Y-37607130D01*
X127549357Y-37482984D01*
X127500360Y-37391935D01*
X127473040Y-37337949D01*
X127468089Y-37324186D01*
X127499867Y-37323927D01*
X127566363Y-37341926D01*
G37*
X127566363Y-37341926D02*
X127656660Y-37374007D01*
X127759840Y-37415993D01*
X127864987Y-37463708D01*
X127960344Y-37512511D01*
X128216787Y-37681967D01*
X128441161Y-37887307D01*
X128630501Y-38123121D01*
X128781847Y-38383994D01*
X128892236Y-38664516D01*
X128958705Y-38959274D01*
X128978292Y-39262856D01*
X128973938Y-39364414D01*
X128962789Y-39484814D01*
X128947386Y-39601784D01*
X128930584Y-39694528D01*
X128926050Y-39713201D01*
X128894194Y-39833159D01*
X128174253Y-38585560D01*
X128041808Y-38355398D01*
X127917721Y-38138509D01*
X127804213Y-37938858D01*
X127703503Y-37760410D01*
X127617811Y-37607130D01*
X127549357Y-37482984D01*
X127500360Y-37391935D01*
X127473040Y-37337949D01*
X127468089Y-37324186D01*
X127499867Y-37323927D01*
X127566363Y-37341926D01*
G36*
X127015291Y-37705763D02*
G01*
X127045723Y-37747133D01*
X127092450Y-37820944D01*
X127151007Y-37919109D01*
X127216931Y-38033541D01*
X127285758Y-38156153D01*
X127353025Y-38278857D01*
X127414268Y-38393567D01*
X127465023Y-38492194D01*
X127500826Y-38566652D01*
X127517215Y-38608854D01*
X127517181Y-38615070D01*
X127490250Y-38632812D01*
X127425197Y-38672360D01*
X127327993Y-38730184D01*
X127204607Y-38802758D01*
X127061007Y-38886550D01*
X126903164Y-38978034D01*
X126903139Y-38978048D01*
X126310482Y-39320434D01*
X126043318Y-39783538D01*
X125964347Y-39921413D01*
X125895400Y-40043682D01*
X125840082Y-40143794D01*
X125801995Y-40215202D01*
X125784743Y-40251356D01*
X125784223Y-40254422D01*
X125807170Y-40243697D01*
X125869710Y-40209916D01*
X125967465Y-40155559D01*
X126096052Y-40083103D01*
X126251090Y-39995027D01*
X126428200Y-39893810D01*
X126622999Y-39781929D01*
X126806278Y-39676216D01*
X127055463Y-39532657D01*
X127264031Y-39413557D01*
X127435019Y-39317298D01*
X127571468Y-39242264D01*
X127676416Y-39186838D01*
X127752902Y-39149402D01*
X127803965Y-39128341D01*
X127832643Y-39122036D01*
X127841075Y-39125620D01*
X127858781Y-39156062D01*
X127898537Y-39224612D01*
X127956924Y-39325366D01*
X128030522Y-39452421D01*
X128115911Y-39599873D01*
X128209669Y-39761817D01*
X128228998Y-39795208D01*
X128596110Y-40429406D01*
X128503610Y-40540727D01*
X128330626Y-40716630D01*
X128120493Y-40877725D01*
X127886515Y-41015567D01*
X127641995Y-41121716D01*
X127533238Y-41156562D01*
X127370142Y-41191424D01*
X127180569Y-41214009D01*
X126982702Y-41223515D01*
X126794724Y-41219142D01*
X126634820Y-41200090D01*
X126618618Y-41196830D01*
X126321058Y-41110477D01*
X126041688Y-40983500D01*
X125788112Y-40820314D01*
X125567930Y-40625335D01*
X125494867Y-40544144D01*
X125396323Y-40427176D01*
X126191254Y-39050757D01*
X126361378Y-38756778D01*
X126508045Y-38504690D01*
X126632738Y-38292073D01*
X126736941Y-38116503D01*
X126822139Y-37975559D01*
X126889815Y-37866820D01*
X126941453Y-37787862D01*
X126978537Y-37736263D01*
X127002552Y-37709603D01*
X127014980Y-37705458D01*
X127015291Y-37705763D01*
G37*
X127015291Y-37705763D02*
X127045723Y-37747133D01*
X127092450Y-37820944D01*
X127151007Y-37919109D01*
X127216931Y-38033541D01*
X127285758Y-38156153D01*
X127353025Y-38278857D01*
X127414268Y-38393567D01*
X127465023Y-38492194D01*
X127500826Y-38566652D01*
X127517215Y-38608854D01*
X127517181Y-38615070D01*
X127490250Y-38632812D01*
X127425197Y-38672360D01*
X127327993Y-38730184D01*
X127204607Y-38802758D01*
X127061007Y-38886550D01*
X126903164Y-38978034D01*
X126903139Y-38978048D01*
X126310482Y-39320434D01*
X126043318Y-39783538D01*
X125964347Y-39921413D01*
X125895400Y-40043682D01*
X125840082Y-40143794D01*
X125801995Y-40215202D01*
X125784743Y-40251356D01*
X125784223Y-40254422D01*
X125807170Y-40243697D01*
X125869710Y-40209916D01*
X125967465Y-40155559D01*
X126096052Y-40083103D01*
X126251090Y-39995027D01*
X126428200Y-39893810D01*
X126622999Y-39781929D01*
X126806278Y-39676216D01*
X127055463Y-39532657D01*
X127264031Y-39413557D01*
X127435019Y-39317298D01*
X127571468Y-39242264D01*
X127676416Y-39186838D01*
X127752902Y-39149402D01*
X127803965Y-39128341D01*
X127832643Y-39122036D01*
X127841075Y-39125620D01*
X127858781Y-39156062D01*
X127898537Y-39224612D01*
X127956924Y-39325366D01*
X128030522Y-39452421D01*
X128115911Y-39599873D01*
X128209669Y-39761817D01*
X128228998Y-39795208D01*
X128596110Y-40429406D01*
X128503610Y-40540727D01*
X128330626Y-40716630D01*
X128120493Y-40877725D01*
X127886515Y-41015567D01*
X127641995Y-41121716D01*
X127533238Y-41156562D01*
X127370142Y-41191424D01*
X127180569Y-41214009D01*
X126982702Y-41223515D01*
X126794724Y-41219142D01*
X126634820Y-41200090D01*
X126618618Y-41196830D01*
X126321058Y-41110477D01*
X126041688Y-40983500D01*
X125788112Y-40820314D01*
X125567930Y-40625335D01*
X125494867Y-40544144D01*
X125396323Y-40427176D01*
X126191254Y-39050757D01*
X126361378Y-38756778D01*
X126508045Y-38504690D01*
X126632738Y-38292073D01*
X126736941Y-38116503D01*
X126822139Y-37975559D01*
X126889815Y-37866820D01*
X126941453Y-37787862D01*
X126978537Y-37736263D01*
X127002552Y-37709603D01*
X127014980Y-37705458D01*
X127015291Y-37705763D01*
G36*
X127331961Y-36408227D02*
G01*
X127698326Y-36476609D01*
X128059901Y-36593657D01*
X128143968Y-36628410D01*
X128454682Y-36788524D01*
X128750264Y-36992415D01*
X129022374Y-37233465D01*
X129262675Y-37505056D01*
X129284743Y-37533783D01*
X129398019Y-37702008D01*
X129511226Y-37903625D01*
X129616222Y-38121823D01*
X129704868Y-38339788D01*
X129764904Y-38525375D01*
X129789906Y-38620361D01*
X129808066Y-38702336D01*
X129820439Y-38782479D01*
X129828082Y-38871972D01*
X129832050Y-38981996D01*
X129833399Y-39123730D01*
X129833347Y-39250000D01*
X129832357Y-39422413D01*
X129829574Y-39555273D01*
X129823911Y-39659873D01*
X129814281Y-39747505D01*
X129799597Y-39829463D01*
X129778774Y-39917038D01*
X129763678Y-39974027D01*
X129642325Y-40327964D01*
X129477248Y-40660402D01*
X129272133Y-40967666D01*
X129030668Y-41246082D01*
X128756537Y-41491977D01*
X128453429Y-41701675D01*
X128125028Y-41871504D01*
X127775023Y-41997788D01*
X127717144Y-42013739D01*
X127606892Y-42040633D01*
X127504004Y-42059754D01*
X127394610Y-42072649D01*
X127264837Y-42080868D01*
X127100813Y-42085960D01*
X127063563Y-42086722D01*
X126913495Y-42088016D01*
X126770929Y-42086363D01*
X126648296Y-42082111D01*
X126558028Y-42075608D01*
X126529629Y-42071751D01*
X126164902Y-41981698D01*
X125814375Y-41844567D01*
X125476152Y-41659417D01*
X125148337Y-41425306D01*
X125031029Y-41327581D01*
X124930826Y-41240865D01*
X125225870Y-40719775D01*
X125331103Y-40834616D01*
X125526156Y-41016992D01*
X125758563Y-41183334D01*
X126015508Y-41325921D01*
X126284179Y-41437032D01*
X126382655Y-41468232D01*
X126464514Y-41490139D01*
X126542192Y-41505680D01*
X126626968Y-41515860D01*
X126730122Y-41521685D01*
X126862934Y-41524159D01*
X127012712Y-41524365D01*
X127174628Y-41523385D01*
X127296908Y-41520643D01*
X127390767Y-41514877D01*
X127467418Y-41504828D01*
X127538074Y-41489234D01*
X127613948Y-41466835D01*
X127661061Y-41451457D01*
X127956221Y-41336748D01*
X128214528Y-41198528D01*
X128447212Y-41029831D01*
X128654212Y-40835567D01*
X128826511Y-40638794D01*
X128965613Y-40439753D01*
X129080377Y-40223476D01*
X129179662Y-39974997D01*
X129201457Y-39911061D01*
X129228059Y-39827701D01*
X129247173Y-39755619D01*
X129260061Y-39683599D01*
X129267984Y-39600430D01*
X129272202Y-39494897D01*
X129273978Y-39355786D01*
X129274365Y-39262712D01*
X129271720Y-39046346D01*
X129260571Y-38867406D01*
X129238104Y-38712790D01*
X129201508Y-38569392D01*
X129147968Y-38424109D01*
X129074673Y-38263836D01*
X129048744Y-38211535D01*
X128877212Y-37923906D01*
X128671074Y-37670143D01*
X128434917Y-37451803D01*
X128173327Y-37270440D01*
X127890893Y-37127609D01*
X127592200Y-37024866D01*
X127281837Y-36963766D01*
X126964390Y-36945864D01*
X126644445Y-36972715D01*
X126326591Y-37045876D01*
X126015414Y-37166900D01*
X125995695Y-37176379D01*
X125701749Y-37346218D01*
X125441667Y-37550948D01*
X125217284Y-37786233D01*
X125030435Y-38047732D01*
X124882953Y-38331108D01*
X124776674Y-38632021D01*
X124713433Y-38946134D01*
X124695063Y-39269106D01*
X124723399Y-39596601D01*
X124800277Y-39924278D01*
X124814769Y-39969175D01*
X124889328Y-40192554D01*
X124730600Y-40470995D01*
X124660643Y-40593160D01*
X124609954Y-40672187D01*
X124571330Y-40708355D01*
X124537569Y-40701945D01*
X124501468Y-40653237D01*
X124455826Y-40562511D01*
X124418566Y-40483133D01*
X124292919Y-40179128D01*
X124207845Y-39882384D01*
X124159646Y-39576435D01*
X124144648Y-39262712D01*
X124166847Y-38873476D01*
X124236037Y-38503543D01*
X124352050Y-38153318D01*
X124514721Y-37823209D01*
X124723884Y-37513621D01*
X124977165Y-37227165D01*
X125262432Y-36976563D01*
X125571566Y-36769208D01*
X125900474Y-36605873D01*
X126245061Y-36487334D01*
X126601234Y-36414364D01*
X126964899Y-36387737D01*
X127331961Y-36408227D01*
G37*
X127331961Y-36408227D02*
X127698326Y-36476609D01*
X128059901Y-36593657D01*
X128143968Y-36628410D01*
X128454682Y-36788524D01*
X128750264Y-36992415D01*
X129022374Y-37233465D01*
X129262675Y-37505056D01*
X129284743Y-37533783D01*
X129398019Y-37702008D01*
X129511226Y-37903625D01*
X129616222Y-38121823D01*
X129704868Y-38339788D01*
X129764904Y-38525375D01*
X129789906Y-38620361D01*
X129808066Y-38702336D01*
X129820439Y-38782479D01*
X129828082Y-38871972D01*
X129832050Y-38981996D01*
X129833399Y-39123730D01*
X129833347Y-39250000D01*
X129832357Y-39422413D01*
X129829574Y-39555273D01*
X129823911Y-39659873D01*
X129814281Y-39747505D01*
X129799597Y-39829463D01*
X129778774Y-39917038D01*
X129763678Y-39974027D01*
X129642325Y-40327964D01*
X129477248Y-40660402D01*
X129272133Y-40967666D01*
X129030668Y-41246082D01*
X128756537Y-41491977D01*
X128453429Y-41701675D01*
X128125028Y-41871504D01*
X127775023Y-41997788D01*
X127717144Y-42013739D01*
X127606892Y-42040633D01*
X127504004Y-42059754D01*
X127394610Y-42072649D01*
X127264837Y-42080868D01*
X127100813Y-42085960D01*
X127063563Y-42086722D01*
X126913495Y-42088016D01*
X126770929Y-42086363D01*
X126648296Y-42082111D01*
X126558028Y-42075608D01*
X126529629Y-42071751D01*
X126164902Y-41981698D01*
X125814375Y-41844567D01*
X125476152Y-41659417D01*
X125148337Y-41425306D01*
X125031029Y-41327581D01*
X124930826Y-41240865D01*
X125225870Y-40719775D01*
X125331103Y-40834616D01*
X125526156Y-41016992D01*
X125758563Y-41183334D01*
X126015508Y-41325921D01*
X126284179Y-41437032D01*
X126382655Y-41468232D01*
X126464514Y-41490139D01*
X126542192Y-41505680D01*
X126626968Y-41515860D01*
X126730122Y-41521685D01*
X126862934Y-41524159D01*
X127012712Y-41524365D01*
X127174628Y-41523385D01*
X127296908Y-41520643D01*
X127390767Y-41514877D01*
X127467418Y-41504828D01*
X127538074Y-41489234D01*
X127613948Y-41466835D01*
X127661061Y-41451457D01*
X127956221Y-41336748D01*
X128214528Y-41198528D01*
X128447212Y-41029831D01*
X128654212Y-40835567D01*
X128826511Y-40638794D01*
X128965613Y-40439753D01*
X129080377Y-40223476D01*
X129179662Y-39974997D01*
X129201457Y-39911061D01*
X129228059Y-39827701D01*
X129247173Y-39755619D01*
X129260061Y-39683599D01*
X129267984Y-39600430D01*
X129272202Y-39494897D01*
X129273978Y-39355786D01*
X129274365Y-39262712D01*
X129271720Y-39046346D01*
X129260571Y-38867406D01*
X129238104Y-38712790D01*
X129201508Y-38569392D01*
X129147968Y-38424109D01*
X129074673Y-38263836D01*
X129048744Y-38211535D01*
X128877212Y-37923906D01*
X128671074Y-37670143D01*
X128434917Y-37451803D01*
X128173327Y-37270440D01*
X127890893Y-37127609D01*
X127592200Y-37024866D01*
X127281837Y-36963766D01*
X126964390Y-36945864D01*
X126644445Y-36972715D01*
X126326591Y-37045876D01*
X126015414Y-37166900D01*
X125995695Y-37176379D01*
X125701749Y-37346218D01*
X125441667Y-37550948D01*
X125217284Y-37786233D01*
X125030435Y-38047732D01*
X124882953Y-38331108D01*
X124776674Y-38632021D01*
X124713433Y-38946134D01*
X124695063Y-39269106D01*
X124723399Y-39596601D01*
X124800277Y-39924278D01*
X124814769Y-39969175D01*
X124889328Y-40192554D01*
X124730600Y-40470995D01*
X124660643Y-40593160D01*
X124609954Y-40672187D01*
X124571330Y-40708355D01*
X124537569Y-40701945D01*
X124501468Y-40653237D01*
X124455826Y-40562511D01*
X124418566Y-40483133D01*
X124292919Y-40179128D01*
X124207845Y-39882384D01*
X124159646Y-39576435D01*
X124144648Y-39262712D01*
X124166847Y-38873476D01*
X124236037Y-38503543D01*
X124352050Y-38153318D01*
X124514721Y-37823209D01*
X124723884Y-37513621D01*
X124977165Y-37227165D01*
X125262432Y-36976563D01*
X125571566Y-36769208D01*
X125900474Y-36605873D01*
X126245061Y-36487334D01*
X126601234Y-36414364D01*
X126964899Y-36387737D01*
X127331961Y-36408227D01*
D14*
X151000000Y-36100000D02*
X148450000Y-36100000D01*
X151000000Y-34400000D02*
X148450000Y-34400000D01*
X151000000Y-36100000D02*
X151000000Y-34400000D01*
X151000000Y-34100000D02*
X148450000Y-34100000D01*
X151000000Y-32400000D02*
X148450000Y-32400000D01*
X151000000Y-34100000D02*
X151000000Y-32400000D01*
X137400000Y-38390000D02*
X134950000Y-38390000D01*
X135600000Y-41610000D02*
X137400000Y-41610000D01*
X141837221Y-72510000D02*
X142162779Y-72510000D01*
X141837221Y-71490000D02*
X142162779Y-71490000D01*
X145662779Y-67990000D02*
X145337221Y-67990000D01*
X145662779Y-69010000D02*
X145337221Y-69010000D01*
X145662779Y-63990000D02*
X145337221Y-63990000D01*
X145662779Y-65010000D02*
X145337221Y-65010000D01*
X143337221Y-74510000D02*
X143662779Y-74510000D01*
X143337221Y-73490000D02*
X143662779Y-73490000D01*
X145337221Y-71010000D02*
X145662779Y-71010000D01*
X145337221Y-69990000D02*
X145662779Y-69990000D01*
X145337221Y-61010000D02*
X145662779Y-61010000D01*
X145337221Y-59990000D02*
X145662779Y-59990000D01*
X134587221Y-72010000D02*
X134912779Y-72010000D01*
X134587221Y-70990000D02*
X134912779Y-70990000D01*
X155740000Y-45337221D02*
X155740000Y-45662779D01*
X156760000Y-45337221D02*
X156760000Y-45662779D01*
X152240000Y-45337221D02*
X152240000Y-45662779D01*
X153260000Y-45337221D02*
X153260000Y-45662779D01*
X153990000Y-45337221D02*
X153990000Y-45662779D01*
X155010000Y-45337221D02*
X155010000Y-45662779D01*
X126490000Y-63337221D02*
X126490000Y-63662779D01*
X127510000Y-63337221D02*
X127510000Y-63662779D01*
X126162779Y-69990000D02*
X125837221Y-69990000D01*
X126162779Y-71010000D02*
X125837221Y-71010000D01*
X150260000Y-45830000D02*
X148800000Y-45830000D01*
X150260000Y-42670000D02*
X148100000Y-42670000D01*
X150260000Y-42670000D02*
X150260000Y-43600000D01*
X150260000Y-45830000D02*
X150260000Y-44900000D01*
X142750000Y-49310000D02*
X146200000Y-49310000D01*
X142750000Y-49310000D02*
X140800000Y-49310000D01*
X142750000Y-44190000D02*
X144700000Y-44190000D01*
X142750000Y-44190000D02*
X140800000Y-44190000D01*
D15*
X142918160Y-81975000D02*
G75*
G03X142918160Y-81975000I-113160J0D01*
G01*
X141750000Y-75250000D02*
X140963000Y-75250000D01*
X141750000Y-75250000D02*
X141750000Y-76466000D01*
X132750000Y-75250000D02*
X132750000Y-76421000D01*
X132750000Y-75250000D02*
X133560000Y-75250000D01*
X141750000Y-86750000D02*
X141750000Y-82624000D01*
X132750000Y-86750000D02*
X132750000Y-82602000D01*
X141750000Y-86750000D02*
X132750000Y-86750000D01*
D16*
X134625000Y-60875000D02*
G75*
G03X134625000Y-60875000I-125000J0D01*
G01*
D14*
X146750000Y-75500000D02*
X146750000Y-77000000D01*
X148000000Y-79500000D02*
X152500000Y-79500000D01*
X153750000Y-77000000D02*
X153750000Y-75500000D01*
X152500000Y-73000000D02*
X148000000Y-73000000D01*
X150500000Y-70750000D02*
X152000000Y-70750000D01*
X154500000Y-69500000D02*
X154500000Y-65000000D01*
X152000000Y-63750000D02*
X150500000Y-63750000D01*
X148000000Y-65000000D02*
X148000000Y-69500000D01*
X150500000Y-60750000D02*
X152000000Y-60750000D01*
X154500000Y-59500000D02*
X154500000Y-55000000D01*
X152000000Y-53750000D02*
X150500000Y-53750000D01*
X148000000Y-55000000D02*
X148000000Y-59500000D01*
X143750000Y-21010000D02*
X129250000Y-21010000D01*
X129250000Y-21010000D02*
X129250000Y-21510000D01*
X129250000Y-21510000D02*
X130250000Y-21510000D01*
X130250000Y-21510000D02*
X130250000Y-29510000D01*
X130250000Y-33010000D02*
X130250000Y-35010000D01*
X130250000Y-35010000D02*
X142750000Y-35010000D01*
X142750000Y-35010000D02*
X142750000Y-33010000D01*
X142750000Y-29510000D02*
X142750000Y-21510000D01*
X142750000Y-21510000D02*
X143750000Y-21510000D01*
X143750000Y-21510000D02*
X143750000Y-21010000D01*
X140500000Y-35260000D02*
X139500000Y-35260000D01*
X152687500Y-28200000D02*
X153137500Y-28200000D01*
X152687500Y-28200000D02*
X152687500Y-27750000D01*
X153237500Y-22600000D02*
X153237500Y-23050000D01*
X155087500Y-22600000D02*
X153237500Y-22600000D01*
X157637500Y-30400000D02*
X157387500Y-30400000D01*
X157637500Y-22600000D02*
X157387500Y-22600000D01*
X155087500Y-30400000D02*
X153237500Y-30400000D01*
X153237500Y-30400000D02*
X153237500Y-29950000D01*
X131330000Y-74330000D02*
X130000000Y-74330000D01*
X131330000Y-73000000D02*
X131330000Y-74330000D01*
X131330000Y-71730000D02*
X128670000Y-71730000D01*
X128670000Y-71730000D02*
X128670000Y-61510000D01*
X131330000Y-71730000D02*
X131330000Y-61510000D01*
X131330000Y-61510000D02*
X128670000Y-61510000D01*
D12*
X152650000Y-41250000D02*
G75*
G02X152650000Y-41150000I0J50000D01*
G01*
X152650000Y-41150000D02*
G75*
G02X152650000Y-41250000I0J-50000D01*
G01*
X152650000Y-41150000D02*
X152650000Y-41150000D01*
X152650000Y-41250000D02*
X152650000Y-41250000D01*
D14*
X141837221Y-70510000D02*
X142162779Y-70510000D01*
X141837221Y-69490000D02*
X142162779Y-69490000D01*
X145662779Y-65990000D02*
X145337221Y-65990000D01*
X145662779Y-67010000D02*
X145337221Y-67010000D01*
X145662779Y-61990000D02*
X145337221Y-61990000D01*
X145662779Y-63010000D02*
X145337221Y-63010000D01*
X149087221Y-49260000D02*
X149412779Y-49260000D01*
X149087221Y-48240000D02*
X149412779Y-48240000D01*
X144491422Y-41710000D02*
X145008578Y-41710000D01*
X144491422Y-40290000D02*
X145008578Y-40290000D01*
X129790000Y-78241422D02*
X129790000Y-78758578D01*
X131210000Y-78241422D02*
X131210000Y-78758578D01*
X134912779Y-72740000D02*
X134587221Y-72740000D01*
X134912779Y-73760000D02*
X134587221Y-73760000D01*
X149241422Y-47710000D02*
X149758578Y-47710000D01*
X149241422Y-46290000D02*
X149758578Y-46290000D01*
X144337221Y-43510000D02*
X144662779Y-43510000D01*
X144337221Y-42490000D02*
X144662779Y-42490000D01*
X149662779Y-40740000D02*
X149337221Y-40740000D01*
X149662779Y-41760000D02*
X149337221Y-41760000D01*
X149758578Y-38540000D02*
X149241422Y-38540000D01*
X149758578Y-39960000D02*
X149241422Y-39960000D01*
X149758578Y-36540000D02*
X149241422Y-36540000D01*
X149758578Y-37960000D02*
X149241422Y-37960000D01*
X144760000Y-57912779D02*
X144760000Y-57587221D01*
X143740000Y-57912779D02*
X143740000Y-57587221D01*
X146710000Y-58008578D02*
X146710000Y-57491422D01*
X145290000Y-58008578D02*
X145290000Y-57491422D01*
X131510000Y-59162779D02*
X131510000Y-58837221D01*
X130490000Y-59162779D02*
X130490000Y-58837221D01*
X129710000Y-59258578D02*
X129710000Y-58741422D01*
X128290000Y-59258578D02*
X128290000Y-58741422D01*
X134087221Y-51510000D02*
X134412779Y-51510000D01*
X134087221Y-50490000D02*
X134412779Y-50490000D01*
X133741422Y-49710000D02*
X134258578Y-49710000D01*
X133741422Y-48290000D02*
X134258578Y-48290000D01*
X131510000Y-55662779D02*
X131510000Y-55337221D01*
X130490000Y-55662779D02*
X130490000Y-55337221D01*
X136912779Y-62490000D02*
X136587221Y-62490000D01*
X136912779Y-63510000D02*
X136587221Y-63510000D01*
X129710000Y-55758578D02*
X129710000Y-55241422D01*
X128290000Y-55758578D02*
X128290000Y-55241422D01*
X137008578Y-64290000D02*
X136491422Y-64290000D01*
X137008578Y-65710000D02*
X136491422Y-65710000D01*
X126760000Y-73912779D02*
X126760000Y-73587221D01*
X125740000Y-73912779D02*
X125740000Y-73587221D01*
M02*
